<svg version="1.2" xmlns="http://www.w3.org/2000/svg" viewBox="0 0 280 280" width="280" height="280">
	<title>hulu-square</title>
	<style>
		.s0 { fill: #1ce783 } 
	</style>
	<path class="s0" d="m35 0c22.4 0 44.9 0 68 0 0 29.7 0 59.4 0 90 3.6-1 7.3-2 11-3 3.8-0.4 3.8-0.4 7.2-0.4q2 0 4 0 2.1 0 4.2 0 2.2 0 4.4 0 4.6 0 9.2 0 5.8 0 11.7 0 4.5 0 9.1 0 2.1 0 4.3 0c22.9-0.1 45.5 5.6 62.6 21.8 9.9 11.2 15.4 26.5 15.4 41.5 0 1.7 0 1.7 0 3.5q0 1.8 0 3.8 0 2 0 4 0 5.4 0 10.9 0 5.7 0 11.4 0 10.7 0 21.5 0 14.6-0.1 29.1 0 23 0 45.9c-22.8 0-45.5 0-69 0 0-8.3-0.1-16.6-0.1-25.1q-0.1-8.9-0.1-17.7-0.1-11.5-0.1-23-0.1-10.1-0.2-20.2 0-3.8 0-7.7 0-5.4-0.1-10.7 0-1.6 0-3.2c-0.1-7.1-0.6-13.4-5.7-18.8-6.2-3.7-12.4-3.9-19.5-3.9q-1.4 0-2.8 0-2.9 0-5.9 0-4.4 0-8.9-0.1-2.8 0-5.7 0-1.3 0-2.6 0c-6.1 0.1-12.1 0.7-16.9 4.8-5.2 6-4.8 13.7-4.8 21.2q0 1.6-0.1 3.4 0 5.6 0 11.2 0 3.8-0.1 7.7 0 9.2-0.1 18.3 0 11.5-0.1 23-0.1 20.4-0.2 40.8c-22.4 0-44.9 0-68 0 0-92.4 0-184.8 0-280z"/>
</svg>