<?xml version="1.0" encoding="UTF-8"?>
<svg xmlns="http://www.w3.org/2000/svg" viewBox="0 0 216 71.15">
<g style="fill:#1CE783">
 <path d="M102.07,22.2c0,0,0,27.75,0,28.71c0,2.54-2.05,4.6-4.6,4.6H87.5c-2.54,0-4.6-2.06-4.6-4.6 c0-0.96,0-28.71,0-28.71H65.74v30.14c0,12.32,7.88,18.81,19.53,18.81H99.7c11.65,0,19.53-6.49,19.53-18.81V22.2H102.07z"/>
 <path d="M198.85,22.2c0,0,0,27.75,0,28.71c0,2.54-2.05,4.6-4.6,4.6h-9.98c-2.54,0-4.6-2.06-4.6-4.6 c0-0.96,0-28.71,0-28.71h-17.16v30.14c0,12.32,7.88,18.81,19.53,18.81h14.42c11.65,0,19.53-6.49,19.53-18.81V22.2H198.85z"/>
 <path d="M33.95,22.2c0,0-8.94,0-11,0c-3.86,0-5.8,1.04-5.8,1.04V0H0v71.15h17.15V42.44c0-2.54,2.06-4.6,4.6-4.6h9.98 c2.54,0,4.59,2.06,4.59,4.6v28.71l17.16,0V40.21C53.48,27.21,44.81,22.2,33.95,22.2z"/>
 <rect x="132.3" width="17.16" height="71.15"/>
</g>
<script xmlns=""/></svg>