<svg id="레이어_1" data-name="레이어 1" xmlns="http://www.w3.org/2000/svg" viewBox="0 0 1240 894.5">
  <g>
    <g>
      <g>
        <path d="M985.6482.0953c-100.4861,0-187.3514,58.5811-228.67,143.6164-.1018-1.1192-.2146-2.2465-.345-3.3865C749.9079,81.5007,701.6393,8.3742,616.1691,8.3742h-224.7v500.52H611.2316c79.341,0,140.7414-70.3358,145.2314-130.5054q.41-5.5.4337-10.7219c41.2863,85.1247,128.2,143.7813,228.7515,143.7813,140.4746,0,254.3518-114.47,254.3518-255.6765S1126.1228.0953,985.6482.0953ZM583.8624,393.714H519.7767V307.8607h64.0857c29.1569,0,41.8413,24.0916,41.8413,42.9266C625.7037,373.4106,608.8692,393.714,583.8624,393.714Zm0-188.5518H519.7767V119.309h64.0857c25.0068,0,41.8413,20.3034,41.8413,42.9265C625.7037,181.0705,613.0193,205.1622,583.8624,205.1622Zm98.8226,50.2735c12.3981-3.8318,33.9048-13.4754,50.6956-32.52a259.8885,259.8885,0,0,0,.8,71.4576C717.5083,271.7588,695.6065,259.5328,682.685,255.4357ZM985.9132,382.4119A127.253,127.253,0,1,1,1113.1661,255.159,127.2529,127.2529,0,0,1,985.9132,382.4119Z"/>
        <circle cx="985.9131" cy="255.159" r="100.0913" transform="translate(108.3426 771.8802) rotate(-45)"/>
      </g>
      <polygon points="225.562 8.374 225.562 195.489 139.102 195.489 139.102 8.374 0 8.374 0 508.895 139.102 508.895 139.102 315.288 225.562 315.288 225.562 508.895 364.664 508.895 364.664 8.374 225.562 8.374"/>
    </g>
    <g>
      <path d="M843.4549,576.9984s49.0535,77.73,127.8337,152.3122c-25.7061,24.5422-85.2422,84.7844-134.8356,160.497h90.5248c35.92-56.0952,70.47-93.1441,90.2269-112.1843,19.7569,19.04,54.3072,56.0891,90.2269,112.1843h90.5249c-49.5934-75.7126-109.1295-135.9547-134.8357-160.497,78.78-74.5819,127.8338-152.3122,127.8338-152.3122H1100.43s-21.6688,39.9-83.225,106.2046C955.6486,616.898,933.98,576.9984,933.98,576.9984Z"/>
      <path d="M266.786,889.8076V680.5512c122.5577-106.3484,118.5219,4.562,118.5219,4.562V889.8076h72.53V671.8755s0-102.8368-84.0544-102.8368c-28.54,0-45.4135,6.4759-67.1467,18.2178,0,0-24.3683,13.11-50.0206,37.9793-4.6973-20.1625-21.6863-56.1971-83.1223-56.1971-39.8132,0-79.07,29.8727-99.2613,48.0384V576.9984H1.7026V889.8076h72.53V681.8585c124.091-108.559,120.0223,3.2547,120.0223,3.2547V889.8076Z"/>
      <path d="M743.3317,576.9984V614.866c-23.435-28.9267-58.2409-46.8488-104.5181-46.8488-85.4748,0-154.7659,73.0643-154.7659,163.1937s69.2911,163.1938,154.7659,163.1938c46.2772,0,81.0831-18.39,104.5181-47.319v42.7219h72.5944V576.9984ZM648.5184,824.71a94.776,94.776,0,1,1,94.776-94.776A94.7761,94.7761,0,0,1,648.5184,824.71Z"/>
    </g>
  </g>
</svg>
