<svg version="1.2" xmlns="http://www.w3.org/2000/svg" viewBox="0 0 1602 2160" width="1602" height="2160">
	<title>peacock-square</title>
	<style>
		.s0 { fill: #090909 } 
		.s1 { fill: #f4751e } 
		.s2 { fill: #f8cc00 } 
		.s3 { fill: #ed1b40 } 
		.s4 { fill: #009ed6 } 
		.s5 { fill: #665ecb } 
		.s6 { fill: #11a943 } 
		.s7 { fill: #2c2d26 } 
		.s8 { fill: #21201d } 
		.s9 { fill: #453c34 } 
	</style>
	<path class="s0" d="m574.1 199.7q3.1 0 6.2 0c20.7 0 41.2 0.6 61.7 3.3q1.9 0.2 3.8 0.5c11.1 1.4 22 3.1 32.8 5.7q5.2 1.2 10.4 2.3c47.2 10.2 105.2 25.3 144 55.5q0 1 0 2 1.2 0.3 2.4 0.7c4.6 1.7 8.4 4.1 12.4 6.7q1.3 0.8 2.5 1.6c12.9 8.3 25.1 17.1 36.8 26.8 3.8 3.1 7.6 6.1 11.5 9.1 12.3 9.7 12.3 9.7 15.3 13.5 1.8 2.2 3.5 3.8 5.6 5.7 5.3 4.5 10.2 9.5 15.1 14.5q2 2 3.9 3.9c9 9.1 17.3 18.8 25.5 28.5 1.2 1.4 1.2 1.4 2.3 2.8 50.7 61 50.7 61 50.7 76.2q1 0.5 2 1c5.2 7.3 9 15.7 13 23.7q1.5 3.1 3.1 6.2c11.6 23.3 11.6 23.3 12.9 31.1q1 0 2 0c28 71.7 46.2 144.9 46.3 222.3 0 1.8 0 1.8 0 3.6-0.1 45.4-5.1 91.7-19.3 135.1-0.5 1.6-0.5 1.6-1.1 3.3-5 15.4-10.4 30.5-16.7 45.4q-0.4 1-0.8 2c-3.5 8.2-7.3 16.3-11.4 24.3q-1 0-2 0-0.2 0.8-0.5 1.6c-1.9 6.4-4.7 11.8-8.1 17.5q-0.8 1.4-1.6 2.8c-4.6 7.9-9.5 15.6-14.8 23.1q-0.7 1-1.4 2.1-4.6 6.4-9.2 12.9-2 2.9-4 5.8c-4.6 6.6-9.5 12.7-15 18.6-3 3.3-5.8 6.8-8.6 10.3-2.8 3.5-5.8 6.9-8.8 10.3q-0.7 0.7-1.4 1.5c-10.3 11.5-10.3 11.5-16 16.1-1.9 1.6-3.4 3.4-4.9 5.2-4.1 4.9-8.7 9.3-13.7 13.2q-1 0-2 0 0 1 0 2c-1.5 1.3-1.5 1.3-3.7 2.9-3.9 2.9-7.4 6-10.9 9.3-6.1 5.7-12.6 10.5-19.3 15.3q-4.5 3.2-8.9 6.4-3.4 2.5-6.9 5-3.8 2.7-7.6 5.6c-11 8.1-22.8 14.8-34.6 21.7q-4.2 2.5-8.4 5c-19.7 11.8-40.5 20.9-62.2 28.5-5 1.7-10 3.7-15 5.6-9.1 3.6-18.2 6.9-27.4 10.1-16.1 5.7-32.2 11.5-48.1 17.6-20.2 7.7-40.5 15.3-61 22.2-5.7 1.9-11.3 4.1-16.9 6.4-8 3.2-16.1 6.2-24.2 9.1q-1.2 0.5-2.5 1-18.4 6.7-37 13c-6.9 2.4-13.8 4.9-20.6 7.7-12.3 5.1-25 9.6-37.6 14.2q-1 0.3-2.1 0.7c-2.9 1-5.1 1.7-8.1 1.7q-0.5 1-1 2c-1.7 0.6-1.7 0.6-4 1.2-5.8 1.7-11.5 3.7-17.2 5.8-3.1 1.1-5.5 2-8.8 2q-0.5 1-1 2c-2.3 1-2.3 1-5 2q-1.1 0.4-2.3 0.9-1.1 0.4-2.3 0.8c-1.4 0.5-1.4 0.5-2.7 1q-6.1 2.2-12.1 4.3-3.2 1.2-6.3 2.3-4.6 1.7-9.2 3.4-1.5 0.5-2.9 1-1.3 0.5-2.7 1-1.2 0.4-2.3 0.8c-3.3 0.7-5.3-0.1-8.2-1.5q0-1 0-2-1 0-2 0 0-1 0-2-1 0-2 0c-1.7-1.7-1.7-1.7-3.5-3.9-2.4-3-2.4-3-5.5-5.1q0-1 0-2-1.5-0.5-3-1 0-1 0-2-1 0-2 0 0-1 0-2-1 0-2 0 0-1 0-2-0.9-0.4-1.8-0.8c-2.3-1.3-3.8-2.6-5.6-4.5-1-1-1-1-1.9-1.9q-0.8-0.9-1.7-1.8c-2.9-2.9-5.8-5.7-8.9-8.3-2.7-2.3-5-4.7-7.3-7.4-6.2-7.3-13.5-13.6-20.8-19.7-2.8-2.5-5.5-4.8-8-7.6q0-1 0-2-1 0-2 0c-2.5-3-2.5-3-5-6-0.3 219.1-0.7 438.2-1 664-5.6 2.3-5.6 2.3-9.3 2.2q-1.3 0.1-2.5 0.1-1.4 0-2.8-0.1-1.4 0.1-2.9 0.1-4.9 0-9.8-0.1-3.5 0-7 0-9.5 0.1-19 0-9 0-17.9 0-17.7 0-35.4 0-17.2 0-34.3 0c-1.1 0-1.1 0-2.2 0q-1 0-2.1 0-18.6 0-37.1 0-7.9 0-15.9 0-9.3 0-18.6-0.1-3.4 0-6.8 0-4.7 0-9.3 0-1.4 0-2.8 0c-6.2 0-6.2 0-7.3-1.1q-0.1-2-0.1-4.1 0-1.3-0.1-2.7 0-1.5 0-3c0-1.6 0-1.6 0-3.2q0-5.4 0-10.8 0-3.9 0-7.8 0-9.7-0.1-19.4 0-11.8 0-23.6-0.1-23.7-0.2-47.4 0-21.3-0.1-42.6-0.2-87.1-0.4-174.1 0-13.4 0-26.8c-0.2-72.5-0.4-145-0.7-321.1q0-1 0-2.1-0.1-46.4-0.1-92.8-0.1-18.3-0.1-36.7 0-3 0-6-0.1-59.6-0.2-119.3-0.2-48.9-0.2-97.9 0-6.7 0-13.4 0-1.3 0-2.6-0.1-20.5-0.1-41-0.1-20-0.1-39.9 0-10.5-0.1-21c-0.1-28 0.4-55.1 5.6-82.7q0.5-2.9 1-5.8 1.1-6.3 2.4-12.5 0.4-2.2 0.9-4.5c9.7-48.4 9.7-48.4 17.1-68 1.5-3.9 2.8-7.9 4.1-11.9 10.2-32.6 22.6-63.7 37.6-94.4q1.3-2.7 2.6-5.4c14.7-30.5 32.8-58.7 52.9-85.9q3.9-5.3 7.8-10.7c9.9-13.6 9.9-13.6 14-16.7 2.9-2.4 4.8-5 7-8.1 2.8-3.6 5.9-6.9 9.1-10.2q1-1 1.9-2.1 2.8-2.9 5.6-5.8 0.9-0.9 1.7-1.8 2.1-2.2 4.3-4.2 1 0 2 0 0-1 0-2c1.4-1.6 1.4-1.6 3-3q1 0 2 0 0-1 0-2c1.3-1.4 1.3-1.4 3.3-3q1-0.9 2.2-1.9 1.2-1 2.5-2.1c1.4-1.2 1.4-1.2 2.9-2.4q4.5-3.8 9.1-7.6 1.4-1.2 2.9-2.4 1.4-1.1 2.7-2.2 1.2-1 2.4-2c2-1.4 2-1.4 4-1.4q0.4-0.9 0.8-1.8c1.4-2.6 2.7-3.6 5.2-5.2q1.3-0.9 2.7-1.8 1.6-1.1 3.3-2.2 2.1-1.4 4.2-2.8 6.9-4.6 13.8-9.2 0.9-0.6 1.9-1.3c14.1-9.3 28.9-17.3 44.1-24.7 1.2-0.6 1.2-0.6 2.4-1.2q9.3-4.5 18.6-8.8c1.2-0.6 1.2-0.6 2.5-1.2 32.3-15 69-24.3 104.2-30 2.7-0.5 5.3-1.1 8-1.8 5.6-1.4 11.3-2 17-2.8q2.9-0.3 5.9-0.7c23.4-3 46.9-3.9 70.5-3.8zm-35.1 245.3q-3.2 0.2-6.4 0.3c-6.9 0.4-13.6 1.4-20.5 2.6q-1.4 0.2-2.9 0.5c-5.1 0.9-10 2.1-14.9 3.8-2.5 0.9-5 1.6-7.5 2.3-25.9 7.6-50.3 18.1-71.8 34.5q-2.8 2-5.7 4c-6.8 4.9-12.9 10.6-18.8 16.6-2.9 2.8-5.9 5.4-9 8-21.1 20.1-36.4 46.7-49.5 72.4q-0.7 1.4-1.5 2.9c-13.3 26.4-22.2 55.1-27.5 84.1q-0.3 1.3-0.5 2.7c-0.6 3.7-0.6 7.3-0.6 11q0 1.2 0 2.3 0 3.9 0 7.7 0 2.8 0 5.6 0 7.6 0 15.3 0 8.2 0 16.5 0 14.2 0 28.5 0 20.6 0 41.3 0 33.5 0 67 0 32.5 0 65 0 1 0 2 0 10.1 0 20.2 0.1 84.4 0.1 168.9 4.8-1.7 9.6-3.3 1.3-0.5 2.7-1c6.9-2.4 13.7-5 20.5-7.8 22-9 44.1-17.6 66.3-26.2 1.4-0.5 1.4-0.5 2.9-1.1q7.3-2.8 14.5-5.6c11.3-4.3 11.3-4.3 22.3-8.9 9.1-4 18.4-7.4 27.7-10.9 16-6 32-12.1 47.8-18.7 12.5-5.2 25-10.1 37.6-14.8 14.3-5.4 28.6-10.8 42.5-16.9 6.9-3 13.9-5.6 20.9-8.3q12-4.5 24-9.1 2.6-1 5.2-2c9.2-3.5 18.4-7.1 27.5-11.1q3.9-1.7 8-3.4c18.5-7.6 36.4-16.1 52-28.9q4.2-3.2 8.5-6.3c8.7-6.7 16.9-13.8 24.7-21.6q2.2-2.2 4.4-4.4c6.2-6.2 11.9-12.8 17.4-19.7q0.8-1 1.6-2.1c17.5-22.2 30.5-47 39.6-73.7 0.9-2.4 1.8-4.7 2.8-7 2.3-5.7 3.7-11.5 5.1-17.5q0.3-1.7 0.7-3.5c12.3-55.9 9.9-117.8-11.8-171.2q-0.8-1.9-1.5-3.9-1.5-3.8-3.1-7.6-1.3-3.2-2.5-6.4c-9.3-23.5-23.5-45.1-38.9-65.1q-0.9-1.3-1.9-2.6c-5.1-6.4-10.7-12.3-16.5-18.1q-1.2-1.2-2.5-2.5-1.1-1.1-2.3-2.2-1-1.1-2.1-2.1c-1.6-1.7-1.6-1.7-3.7-1.5q-0.3-0.8-0.6-1.7c-1.9-3.1-4.4-5.2-7.2-7.4-0.8-0.7-0.8-0.7-1.6-1.4-3-2.5-5.8-4.3-9.6-5.5q0-1 0-2-1.5 0-3 0 0-1 0-2c-3.8-3-7.9-5.4-12-8q-1-0.7-2.1-1.3c-10-6.4-20-12.1-30.9-16.7q-1.1-0.5-2.2-0.9c-14.2-6.2-28.9-10.8-43.8-15.1q-1.4-0.4-2.7-0.8c-7.2-2.1-14.4-3.3-21.7-4.3q-1.7-0.3-3.5-0.5c-14-2.1-27.8-2.6-42-2.5q-4.6 0-9.3 0-2.9 0-5.9 0-1.4 0-2.8 0c-4.2 0-8 0.1-12.1 1.1z"/>
	<path class="s1" d="m1473 448q0.9 0.4 1.9 0.9c9.2 4.3 17.8 9.1 26.1 15.1q1.2 0.9 2.5 1.8c27.5 20.7 44 52.9 48.8 86.5 3.9 32-2.7 67.8-22.8 93.6q-4.9 6.2-10 12.3-1.4 1.7-2.8 3.4c-3.1 3.9-6.4 6.9-10.3 9.8-1 0.8-1 0.8-1.9 1.5-8 6.1-16.3 11.1-25.1 15.9q-1.1 0.5-2.1 1.1c-7.8 4.1-15.9 6.4-24.4 8.2q-1.2 0.3-2.3 0.5c-29.3 6.4-57.1 1.5-83.6-11.6q-1-0.5-2-1c-8.9-4.4-16.5-9.3-24-16q-1.2-1-2.4-2c-9.7-8.2-20.7-20.1-25.6-32q0-1.5 0-3-1 0-2 0c-4.5-7.9-7.8-15.8-10.3-24.6q-0.4-1.2-0.7-2.5c-3.3-11.9-4.4-23.6-4.4-36q0-1 0-2c0.1-14.3 2.1-27.4 6.7-40.9q0.8-2.3 1.5-4.6c8.6-27.1 31.4-53.3 56.3-66.7q5-2.5 10.1-4.9 2.4-1.1 4.8-2.3c29.6-14.2 68.2-14.6 98-0.5z"/>
	<path class="s2" d="m1500 123q1.3 1 2.6 2.1 3.7 2.9 7.4 5.9 0.9 0.7 1.9 1.5c5.1 4.1 9.4 9.1 13.1 14.5q0 1 0 2 1 0 2 0c1 2.5 1 2.5 2 5q1 0 2 0c19.7 32.2 27.1 68.8 19 106-1.3 5.5-3.1 10.7-5 16q-0.3 1-0.7 1.9c-11.1 31.3-35.8 56-65.2 70.7-31.1 14.2-65.6 16.5-97.9 4.7-7.9-3.2-15.4-6.8-22.8-11q-3.2-1.7-6.4-3.3 0-1 0-2-2.5-1-5-2 0-1 0-2-0.9-0.4-1.8-0.9c-2.2-1.1-2.2-1.1-5.2-3.1q0-1 0-2c-0.9-0.1-0.9-0.1-1.8-0.3-2.8-0.9-3.9-2.2-5.8-4.5-0.9-1-0.9-1-1.8-2.1-1.5-2-2.6-3.9-3.6-6.1q-1 0-2 0c-1.2-1.5-1.2-1.5-2.5-3.6q-0.7-1.1-1.5-2.2-0.7-1.2-1.5-2.5-0.7-1.1-1.5-2.3c-3.7-5.8-3.7-5.8-5-8.5-1-2.1-1-2.1-3-3.9-5.1-9.8-8.6-20-11.2-30.7q-0.2-1-0.5-2.1c-4.5-19.5-4.3-42.8 0.7-62.2q0.3-1.1 0.6-2.2c5-18.8 15.1-35.2 27.2-50.3q1.5-1.9 2.9-3.9 0.6-0.8 1.3-1.6 1 0 2 0 0-1 0-2c3.5-3.2 7.3-6.1 11-9q1.5-1.2 3.1-2.4c43.5-33.3 109.1-37.3 152.9-1.6z"/>
	<path class="s3" d="m1424.7 775.8c1.6 0 1.6 0 3.2 0 6.3 0 12 0.6 18.1 2.2q1.9 0.4 3.9 0.8c34.9 7.3 63.6 27.5 83.1 57.2 19.7 30.1 23.9 67.2 17 102-3.5 15.1-10 31.4-19 44q-1 0-2 0-0.3 1-0.7 2.1c-1.6 3.6-3.9 6.3-6.5 9.3q-0.7 0.8-1.4 1.6c-5.9 6.9-12.1 12.8-19.7 18q-1.1 0.8-2.2 1.6-2.3 1.5-4.5 3-2.4 1.7-4.8 3.4c-24.8 17.4-59.8 20.8-89 15.9-25.2-5.9-46-17.7-65.2-34.9q-1-0.8-2-1.7c-8.4-7.8-15.4-18.4-21-28.3q0-1 0-2-1-0.5-2-1c-1.2-2.4-2.3-4.7-3.4-7.2q-0.4-1.1-0.9-2.2c-2.9-6.7-5-13.5-6.7-20.6-0.4-1.8-0.4-1.8-0.9-3.6-4.3-19.2-4-41.3 0.9-60.4q0.3-1.2 0.6-2.4c4.4-16.2 12.1-30.7 21.4-44.6q1 0 2 0 0.3-1 0.7-2.1c1.6-3.6 4-6.3 6.7-9.1q0.8-0.9 1.7-1.8c19.6-20.5 46.4-33.7 74.5-37.6 2.3-0.3 2.3-0.3 4.2-0.9 4.5-1 9.3-0.7 13.9-0.7z"/>
	<path class="s4" d="m1505 1491q2.5 2.5 5 5 1.1 0.8 2.3 1.7 0.8 0.6 1.7 1.3 0 1 0 2 1 0 2 0c2.8 3 5.2 6.2 7.8 9.4q1.7 2.2 3.5 4.4c14.1 17.9 21 39 24.7 61.2q0.3 1.7 0.6 3.5c3.2 27.1-3.3 55.3-15.6 79.5q-1 0-2 0-0.5 2.5-1 5-1 0-2 0 0 1.5 0 3-1 0-2 0 0 1.5 0 3-1 0-2 0-0.4 0.8-0.8 1.7c-8.3 15.6-23.4 26.7-38.2 35.3q-1.1 0.6-2.2 1.3c-30.6 17.5-64.9 20.5-98.8 11.7-20.8-5.8-38.4-18.4-54-33-0.9-0.8-0.9-0.8-1.8-1.6-22-20.4-34.9-52.4-36.3-82.1-0.8-28.2 3.2-56.8 20.1-80.3q1-1.5 2-3c19.5-29.5 47.9-47.1 82.1-55.8 2.6-0.5 5.2-0.9 7.9-1.2 1.5-0.2 1.5-0.2 3.1-0.4 33.8-3.2 67.4 7.2 93.9 28.4z"/>
	<path class="s5" d="m1509.6 1157.1c3.9 3.3 3.9 3.3 5.4 4.9q0 1 0 2 1 0 2 0c1.6 1.9 3.1 3.8 4.6 5.8 0.7 0.9 0.7 0.9 1.4 1.8q1.3 1.8 2.7 3.7 1.7 2.2 3.5 4.5c19.3 25.2 26.9 59.7 23.3 91-3.9 29-14.8 53.7-34.5 75.2-0.7 0.8-0.7 0.8-1.4 1.6-15.5 16.7-34.2 27-55.6 34.4q-1.5 0.5-3 1.1c-21.8 6.8-51.5 7.6-72.6-2-2.8-1.3-5.7-2.3-8.6-3.3-13.1-5.1-24-11.9-34.8-20.8q-1.4-1.1-2.9-2.2-1-0.9-2.1-1.8 0-1 0-2-1 0-2 0 0-1 0-2-1.5-0.5-3-1c-16.6-15.3-28.1-39.3-33-61-0.3-1.1-0.3-1.1-0.5-2.3-4.2-19.5-4.1-40.3 0.5-59.7q0.2-1.1 0.5-2.2c5.9-24.3 20.2-48.8 39.5-64.8q0.9-0.8 1.8-1.7c48.3-44.9 120-38.3 168.8 0.8z"/>
	<path class="s6" d="m1505 1829q1.2 1 2.5 2.1c26.8 23.4 42.4 54.2 45.3 89.8 0.7 11.2 0.2 22-1.8 33.1q-0.2 1-0.4 2c-2.6 14.8-7.7 28.7-14.6 42q-1 0-2 0-0.5 2.5-1 5-1 0-2 0 0 1.5 0 3-1 0-2 0 0 1.5 0 3-1.7 1.8-3.5 3.4c-1.7 1.8-3.1 3.7-4.6 5.7-8 10.4-18.2 17.9-29.2 24.8q-2.2 1.4-4.3 2.8c-24.7 15.8-59.1 20.4-87.5 14.8-14.9-3.4-31.2-8.8-43.9-17.5q0-1 0-2-1-0.3-2.1-0.7c-3.5-1.6-6.1-3.7-8.9-6.2q-0.8-0.7-1.7-1.4-2.7-2.4-5.3-4.7-0.9-0.8-1.8-1.6-2.7-2.4-5.4-4.8-0.8-0.8-1.7-1.5c-2.7-2.6-4.6-4.7-6.1-8.1q-3-4.5-6-9-2-3-4-6-0.7-1.1-1.5-2.3c-3.8-6.1-6.5-12.2-8.7-19q-0.5-1.6-1-3.2c-7.4-23.4-8-48.5-2.8-72.5q0.2-1 0.4-2.1c3.4-15.4 11.1-31.3 20.6-43.9q1 0 2 0 0.4-1.1 0.9-2.3c1.1-2.7 1.1-2.7 3.1-5.7q1 0 2 0 0.4-0.9 0.9-1.8c1.1-2.2 1.1-2.2 3.1-5.2q1 0 2 0 0-1 0-2 1 0 2 0 0-1 0-2c1.8-1.6 1.8-1.6 4.2-3.4 2.6-2 5.2-3.9 7.7-6 2.1-1.6 2.1-1.6 4.1-1.6q0-1 0-2 1.5 0 3 0 0-1 0-2c18.1-9.4 35.6-16.7 56-19q1.5-0.2 3.1-0.4c32.1-3.1 66.6 7.2 90.9 28.4z"/>
	<path class="s7" d="m301 684q0.5 0 1 0c0.3 147.2 0.7 294.4 1 446q2.5-0.5 5-1c-1 2-1 2-4.1 3.1q-1.4 0.5-2.9 0.9c-1.7-1.7-1.1-3.7-1.1-5.9 0-1.1 0-1.1 0-2.2q0-1.1 0-2.3 0-3.8 0-7.6 0-2.8 0-5.6 0-7.6 0-15.2 0-8.2 0-16.4 0-16.1 0-32.2 0-13 0-26.1 0-1.8 0-3.7 0-3.8 0-7.6 0-34.4 0-68.7 0-31.4 0-62.9 0-35.2 0-70.5 0-3.7 0-7.5 0-1.8 0-3.7 0-13.1 0-26.1 0-15.9 0-31.8 0-8.1 0-16.3 0-7.4 0-14.8 0-2.7 0-5.4 0-3.6 0-7.3 0-1.1 0-2.1c0-4.9 0-4.9 1.1-7.1z"/>
	<path class="s8" d="m247 315q1 0.5 2 1c-12.2 12.2-24.4 24.4-37 37q-1-0.5-2-1 3.3-3.6 6.6-7.1 0.9-1 1.9-2 2.7-3 5.5-5.9c0.9-0.9 0.9-0.9 1.7-1.8 1.4-1.5 2.9-2.8 4.3-4.2q1 0 2 0 0-1 0-2c1.4-1.6 1.4-1.6 3-3q1 0 2 0 0-1 0-2c1.7-1.7 1.7-1.7 3.9-3.5 2.1-1.8 4.1-3.5 6.1-5.5z"/>
	<path class="s9" d=""/>
</svg>