<?xml version="1.0" encoding="utf-8"?>
<!-- Uploaded to: SVG Repo, www.svgrepo.com, Generator: SVG Repo Mixer Tools -->
<svg fill="#000000" width="800px" height="800px" viewBox="0 0 32 32" version="1.1" xmlns="http://www.w3.org/2000/svg">
<title>appletv</title>
<path d="M9.096 10.993c0.478-0.56 0.77-1.293 0.77-2.094 0-0.082-0.003-0.163-0.009-0.243l0.001 0.011c-0.861 0.088-1.613 0.494-2.147 1.098l-0.003 0.004c-0.484 0.535-0.781 1.249-0.781 2.031 0 0.078 0.003 0.156 0.009 0.233l-0.001-0.010c0.008 0 0.018 0 0.027 0 0.862 0 1.63-0.4 2.13-1.024l0.004-0.005zM10.928 16.407c0.009 1.317 0.802 2.446 1.935 2.944l0.021 0.008c-0.258 0.789-0.6 1.474-1.026 2.097l0.018-0.028c-0.608 0.886-1.235 1.77-2.234 1.791-0.977 0.020-1.285-0.577-2.409-0.577-1.111 0-1.46 0.555-2.387 0.597-0.946 0.031-1.677-0.967-2.294-1.852-0.919-1.24-1.471-2.801-1.471-4.49 0-1.026 0.204-2.005 0.573-2.898l-0.018 0.050c0.603-1.072 1.722-1.791 3.011-1.822l0.004-0c0.936-0.020 1.832 0.639 2.409 0.639 0.575 0 1.656-0.782 2.788-0.669 1.1 0.042 2.062 0.596 2.659 1.43l0.007 0.010c-0.944 0.58-1.568 1.6-1.585 2.767l-0 0.003zM20.026 23.075c-0.573 0.164-1.23 0.258-1.91 0.258-0.009 0-0.017 0-0.026-0h0.001c-1.535 0-2.296-0.865-2.296-2.604v-7.666h-1.327v-1.39h1.399v-1.811l1.842-0.751v2.573h2.13v1.389h-2.118v7.244c-0.005 0.051-0.008 0.11-0.008 0.17 0 0.367 0.102 0.709 0.279 1.002l-0.005-0.009c0.204 0.208 0.488 0.337 0.802 0.337 0.047 0 0.093-0.003 0.139-0.009l-0.005 0.001c0.401-0.018 0.779-0.069 1.145-0.152l-0.043 0.008zM26.695 23.157h-2.265l-4.168-11.485h2.038l2.521 7.471c0.094 0.288 0.341 1.123 0.731 2.511l0.371-1.244 0.412-1.255 2.613-7.493h2.028z"></path>
</svg>