<?xml version="1.0" standalone="no"?>
<!DOCTYPE svg PUBLIC "-//W3C//DTD SVG 20010904//EN"
 "http://www.w3.org/TR/2001/REC-SVG-20010904/DTD/svg10.dtd">
<svg version="1.0" xmlns="http://www.w3.org/2000/svg"
 width="622.000000pt" height="177.000000pt" viewBox="0 0 622.000000 177.000000"
 preserveAspectRatio="xMidYMid meet">

<g transform="translate(0.000000,177.000000) scale(0.100000,-0.100000)"
fill="#e80000" stroke="none">
<path d="M4012 1590 c-165 -30 -316 -127 -408 -264 -93 -136 -136 -340 -114
-538 34 -307 193 -514 450 -584 90 -25 300 -25 389 0 226 62 380 232 437 481
25 109 25 311 0 420 -54 241 -211 413 -431 470 -74 19 -251 27 -323 15z m277
-286 c122 -66 179 -220 168 -449 -9 -181 -61 -302 -158 -367 -118 -79 -286
-61 -381 40 -53 56 -82 128 -97 236 -40 287 49 508 229 567 14 5 61 7 105 6
67 -3 89 -8 134 -33z"/>
<path d="M2004 1575 c-75 -16 -133 -45 -183 -90 -21 -19 -41 -35 -44 -35 -3 0
-19 25 -36 55 l-31 55 -110 0 -110 0 0 -680 0 -680 160 0 160 0 0 497 0 496
41 39 c61 59 127 88 197 88 107 0 171 -35 208 -114 l24 -51 0 -477 0 -478 155
0 155 0 0 488 c0 550 -4 520 80 581 59 42 101 54 184 49 97 -4 147 -36 184
-116 l27 -57 3 -472 3 -473 155 0 154 0 0 493 c0 533 -3 564 -56 668 -88 175
-308 262 -539 214 -81 -17 -200 -72 -234 -109 l-24 -25 -42 34 c-114 94 -316
136 -481 100z"/>
<path d="M4703 1578 c8 -20 583 -1319 598 -1350 11 -26 17 -28 68 -28 l56 0
310 686 c171 377 312 689 313 695 3 6 -58 8 -163 7 l-168 -3 -169 -405 c-93
-223 -173 -408 -176 -412 -4 -3 -79 179 -167 405 l-160 412 -174 3 c-137 2
-172 0 -168 -10z"/>
<path d="M260 1430 l0 -140 359 -2 359 -3 -369 -490 -369 -490 0 -52 0 -53
605 0 605 0 0 140 0 140 -355 0 c-195 0 -355 2 -355 5 0 3 157 222 350 486
l350 482 0 58 0 59 -590 0 -590 0 0 -140z"/>
</g>
</svg>
